<svg id="Layer_1" data-name="Layer 1" xmlns="http://www.w3.org/2000/svg" xmlns:xlink="http://www.w3.org/1999/xlink" viewBox="0 0 166.04 105.77"><defs><style>.cls-1{fill:#fff;}.cls-2{fill:url(#New_Gradient_Swatch_2);}.cls-3{fill:url(#New_Gradient_Swatch_2-2);}.cls-4{fill:url(#New_Gradient_Swatch_2-3);}.cls-5{fill:url(#New_Gradient_Swatch_3);}.cls-6{fill:url(#New_Gradient_Swatch_3-2);}.cls-7{fill:url(#New_Gradient_Swatch_4);}</style><linearGradient id="New_Gradient_Swatch_2" x1="87.63" y1="34.01" x2="59.22" y2="83.74" gradientUnits="userSpaceOnUse"><stop offset="0" stop-color="#00a7e1"/><stop offset="0.12" stop-color="#03a1de"/><stop offset="0.29" stop-color="#0a8ed6"/><stop offset="0.48" stop-color="#1571ca"/><stop offset="0.7" stop-color="#2547b8"/><stop offset="0.93" stop-color="#3a13a1"/><stop offset="1" stop-color="#410099"/></linearGradient><linearGradient id="New_Gradient_Swatch_2-2" x1="58.25" y1="17.23" x2="29.84" y2="66.95" xlink:href="#New_Gradient_Swatch_2"/><linearGradient id="New_Gradient_Swatch_2-3" x1="68.81" y1="23.26" x2="40.4" y2="72.98" xlink:href="#New_Gradient_Swatch_2"/><linearGradient id="New_Gradient_Swatch_3" x1="72.86" y1="63.87" x2="23.03" y2="63.87" gradientUnits="userSpaceOnUse"><stop offset="0" stop-color="#ffc600"/><stop offset="0.46" stop-color="#f19345"/><stop offset="0.82" stop-color="#e77074"/><stop offset="1" stop-color="#e36386"/></linearGradient><linearGradient id="New_Gradient_Swatch_3-2" x1="72.86" y1="39.6" x2="23.03" y2="39.6" xlink:href="#New_Gradient_Swatch_3"/><linearGradient id="New_Gradient_Swatch_4" x1="69.1" y1="51.73" x2="44.87" y2="51.73" gradientUnits="userSpaceOnUse"><stop offset="0" stop-color="#00a7e1"/><stop offset="0.23" stop-color="#0fa9b5"/><stop offset="0.74" stop-color="#34ad47"/><stop offset="0.87" stop-color="#3dae2b"/></linearGradient></defs><title>plai-logos</title><path class="cls-1" d="M91.32,43.46a3.21,3.21,0,0,1-2.3-.83,3.24,3.24,0,0,1,0-4.42,3.18,3.18,0,0,1,2.3-.84A3.32,3.32,0,0,1,93.4,38a2.67,2.67,0,0,1,1,1.72.16.16,0,0,1,0,.17.19.19,0,0,1-.17.07H92.78a.25.25,0,0,1-.26-.19A1.13,1.13,0,0,0,91.34,39a1.24,1.24,0,0,0-1,.4A1.47,1.47,0,0,0,90,40.42a1.49,1.49,0,0,0,.37,1.06,1.24,1.24,0,0,0,1,.4,1.13,1.13,0,0,0,1.18-.81.24.24,0,0,1,.26-.19H94.2a.22.22,0,0,1,.17.06.17.17,0,0,1,0,.17,2.67,2.67,0,0,1-1,1.73A3.32,3.32,0,0,1,91.32,43.46Z"/><path class="cls-1" d="M96,43.31c-.08,0-.12,0-.12-.13V37.65a.11.11,0,0,1,.12-.12h.8c.08,0,.13,0,.13.12v5.53a.12.12,0,0,1-.13.13Z"/><path class="cls-1" d="M103.32,42.71a2.88,2.88,0,0,1-3.81,0,2.52,2.52,0,0,1-.73-1.89V37.65c0-.08,0-.12.13-.12h.79c.09,0,.13,0,.13.12v3.17a1.68,1.68,0,0,0,.44,1.22,1.63,1.63,0,0,0,2.29,0,1.68,1.68,0,0,0,.44-1.22V37.65a.11.11,0,0,1,.12-.12h.8c.09,0,.13,0,.13.12v3.17A2.52,2.52,0,0,1,103.32,42.71Z"/><path class="cls-1" d="M108.11,37.53a3.4,3.4,0,0,1,2.34.79,2.92,2.92,0,0,1,0,4.2,3.41,3.41,0,0,1-2.34.79h-2.06c-.08,0-.12,0-.12-.13V37.65a.11.11,0,0,1,.12-.12ZM108,42.39a2.4,2.4,0,0,0,1.64-.54,1.94,1.94,0,0,0,0-2.86,2.4,2.4,0,0,0-1.64-.54h-1v3.94Z"/><path class="cls-1" d="M112.33,43.31q-.15,0-.09-.15l2.51-5.54a.15.15,0,0,1,.14-.09h.79a.14.14,0,0,1,.14.09l2.49,5.54q.06.15-.09.15h-.86a.13.13,0,0,1-.14-.1L116.68,42h-2.79l-.54,1.24a.14.14,0,0,1-.14.1Zm2-2.26h2l-1-2.32Z"/><path class="cls-1" d="M121.91,37.53a3.37,3.37,0,0,1,2.34.79,2.92,2.92,0,0,1,0,4.2,3.41,3.41,0,0,1-2.34.79h-2c-.09,0-.13,0-.12-.13V37.65a.11.11,0,0,1,.12-.12Zm-.11,4.86a2.42,2.42,0,0,0,1.64-.54,2,2,0,0,0,0-2.86,2.42,2.42,0,0,0-1.64-.54h-1v3.94Z"/><path class="cls-1" d="M91.32,52a3.18,3.18,0,0,1-2.3-.84,3.24,3.24,0,0,1,0-4.42,3.18,3.18,0,0,1,2.3-.84,3.32,3.32,0,0,1,2.08.63,2.67,2.67,0,0,1,1,1.73.17.17,0,0,1,0,.17.22.22,0,0,1-.17.06H92.78a.25.25,0,0,1-.26-.19,1.13,1.13,0,0,0-1.18-.81,1.24,1.24,0,0,0-1,.4,1.7,1.7,0,0,0,0,2.12,1.24,1.24,0,0,0,1,.4,1.13,1.13,0,0,0,1.18-.81.25.25,0,0,1,.26-.19H94.2a.22.22,0,0,1,.17.06.17.17,0,0,1,0,.17,2.67,2.67,0,0,1-1,1.73A3.32,3.32,0,0,1,91.32,52Z"/><path class="cls-1" d="M100.89,51.7a.13.13,0,0,1,0,.11.13.13,0,0,1-.1,0h-1a.21.21,0,0,1-.14-.07l-1.62-2H96.89v1.89a.12.12,0,0,1-.13.13H96c-.08,0-.12,0-.12-.13V46.19a.11.11,0,0,1,.12-.12h2.39a2.41,2.41,0,0,1,1.62.52,1.67,1.67,0,0,1,.61,1.36,1.79,1.79,0,0,1-.35,1.13,2,2,0,0,1-1,.62Zm-4-4.71v1.93h1.27a1.75,1.75,0,0,0,1-.27.84.84,0,0,0,0-1.39,1.55,1.55,0,0,0-1-.27Z"/><path class="cls-1" d="M106.7,46.86c0,.09,0,.13-.13.13h-3.14v1.55h2.8a.11.11,0,0,1,.12.12v.67a.11.11,0,0,1-.12.12h-2.8v1.48h3.14c.09,0,.13,0,.13.12v.67c0,.09,0,.13-.13.13H102.5c-.08,0-.12,0-.12-.13V46.19a.11.11,0,0,1,.12-.12h4.07c.09,0,.13,0,.13.12Z"/><path class="cls-1" d="M108.1,51.85c-.11,0-.14-.05-.1-.15l2.51-5.54a.15.15,0,0,1,.14-.09h.79a.13.13,0,0,1,.14.09l2.49,5.54q.06.15-.09.15h-.86a.13.13,0,0,1-.14-.09l-.53-1.25h-2.8l-.54,1.25a.13.13,0,0,1-.14.09ZM110,49.6h2l-1-2.33Z"/><path class="cls-1" d="M119.34,46.07a.11.11,0,0,1,.12.12v.67c0,.09,0,.13-.12.13h-2v4.73c0,.09,0,.13-.12.13h-.81c-.08,0-.12,0-.12-.13V47H114.4a.12.12,0,0,1-.13-.13v-.67c0-.08,0-.12.13-.12Z"/><path class="cls-1" d="M121,51.85c-.08,0-.12,0-.12-.13V46.19a.11.11,0,0,1,.12-.12h.81a.11.11,0,0,1,.12.12v5.53c0,.09,0,.13-.12.13Z"/><path class="cls-1" d="M126.13,51.85a.14.14,0,0,1-.14-.09l-2.6-5.54q-.06-.15.09-.15h.9a.14.14,0,0,1,.14.09l2,4.35,2-4.35a.14.14,0,0,1,.14-.09h.89q.16,0,.09.15L127,51.76a.15.15,0,0,1-.14.09Z"/><path class="cls-1" d="M130,51.85c-.11,0-.14-.05-.1-.15l2.52-5.54a.13.13,0,0,1,.13-.09h.79a.13.13,0,0,1,.14.09L136,51.7q.06.15-.09.15h-.86a.13.13,0,0,1-.14-.09l-.53-1.25h-2.8L131,51.76a.13.13,0,0,1-.14.09ZM132,49.6h2l-1-2.33Z"/><path class="cls-1" d="M90.79,54.61a3.47,3.47,0,0,1,2.39.77,3,3,0,0,1,0,4.24,3.47,3.47,0,0,1-2.39.77H88.51c-.15,0-.23-.07-.23-.22V54.83a.2.2,0,0,1,.23-.22Zm0,4.27a1.49,1.49,0,0,0,1-.38,1.48,1.48,0,0,0,0-2,1.49,1.49,0,0,0-1-.38H90.1v2.76Z"/><path class="cls-1" d="M95.59,60.39a.11.11,0,0,1-.12-.12V54.74c0-.09,0-.13.12-.13h.8c.09,0,.13,0,.13.13v5.53c0,.08,0,.12-.13.12Z"/><path class="cls-1" d="M101.34,60.51a3.07,3.07,0,0,1-2.24-.83,2.93,2.93,0,0,1-.85-2.19,2.89,2.89,0,0,1,.85-2.18,3.06,3.06,0,0,1,2.24-.82,3.22,3.22,0,0,1,1.83.52,2.45,2.45,0,0,1,1,1.39c0,.09,0,.14-.1.14h-.87a.14.14,0,0,1-.14-.1,1.48,1.48,0,0,0-.67-.73,2.21,2.21,0,0,0-1.1-.27,2,2,0,0,0-1.46.56,2.28,2.28,0,0,0,0,3,2,2,0,0,0,1.47.57,1.93,1.93,0,0,0,1.16-.36,1.78,1.78,0,0,0,.66-1h-1.78c-.08,0-.12,0-.12-.13v-.66c0-.09,0-.13.12-.13h2.82c.08,0,.12,0,.12.13a3.06,3.06,0,0,1-.81,2.24A2.9,2.9,0,0,1,101.34,60.51Z"/><path class="cls-1" d="M106.2,60.39a.11.11,0,0,1-.12-.12V54.74c0-.09,0-.13.12-.13H107c.08,0,.12,0,.12.13v5.53a.11.11,0,0,1-.12.12Z"/><path class="cls-1" d="M113.64,54.61c.09,0,.13,0,.13.13v.66c0,.09,0,.13-.13.13H111.7v4.74c0,.08,0,.12-.13.12h-.8a.11.11,0,0,1-.12-.12V55.53h-1.94c-.09,0-.13,0-.13-.13v-.66c0-.09,0-.13.13-.13Z"/><path class="cls-1" d="M114.06,60.39q-.15,0-.09-.15l2.51-5.54a.14.14,0,0,1,.14-.09h.78a.13.13,0,0,1,.14.09L120,60.24c0,.1,0,.15-.08.15h-.86a.13.13,0,0,1-.14-.09l-.54-1.25h-2.8l-.54,1.25a.12.12,0,0,1-.13.09Zm2-2.25h2l-1-2.32Z"/><path class="cls-1" d="M122.51,59.5h3c.09,0,.13,0,.13.12v.65c0,.08,0,.12-.13.12h-3.93a.11.11,0,0,1-.12-.12V54.74c0-.09,0-.13.12-.13h.81c.08,0,.12,0,.12.13Z"/><path class="cls-1" d="M89.64,66.41A1.46,1.46,0,0,1,88.58,66a1.51,1.51,0,0,1,0-2,1.46,1.46,0,0,1,1.06-.39,1.62,1.62,0,0,1,.93.26,1.18,1.18,0,0,1,.51.72.08.08,0,0,1,0,.08.11.11,0,0,1-.08,0h-.68a.12.12,0,0,1-.12-.08.56.56,0,0,0-.53-.27.6.6,0,0,0-.45.18A.69.69,0,0,0,89,65a.68.68,0,0,0,.18.5.56.56,0,0,0,.45.2.6.6,0,0,0,.29-.08.5.5,0,0,0,.19-.19h-.38a.1.1,0,0,1-.11-.1V65c0-.07,0-.1.11-.1H91c.08,0,.11,0,.11.1A1.46,1.46,0,0,1,90.73,66,1.51,1.51,0,0,1,89.64,66.41Z"/><path class="cls-1" d="M94.28,66.07a1.63,1.63,0,0,1-2,0,1.27,1.27,0,0,1-.35-1V63.76c0-.07,0-.1.11-.1h.64c.07,0,.1,0,.1.1v1.38a.52.52,0,0,0,.14.38.45.45,0,0,0,.35.14.49.49,0,0,0,.36-.14.52.52,0,0,0,.13-.38V63.76c0-.07,0-.1.11-.1h.64c.07,0,.11,0,.11.1v1.35A1.27,1.27,0,0,1,94.28,66.07Z"/><path class="cls-1" d="M95.38,66.33c-.08,0-.11,0-.08-.11l1.07-2.49a.12.12,0,0,1,.12-.07h.63a.11.11,0,0,1,.12.07l1.07,2.49a.06.06,0,0,1,0,.08s0,0-.08,0h-.67a.11.11,0,0,1-.12-.08l-.13-.31h-1l-.12.31a.11.11,0,0,1-.12.08Zm1.16-1h.53l-.26-.7Z"/><path class="cls-1" d="M100.22,63.66a1.57,1.57,0,0,1,1.11.35,1.39,1.39,0,0,1,0,2,1.57,1.57,0,0,1-1.11.35h-1c-.07,0-.11,0-.11-.1V63.76c0-.07,0-.1.11-.1Zm0,2a.68.68,0,0,0,.49-.17.63.63,0,0,0,.18-.47.62.62,0,0,0-.18-.46.68.68,0,0,0-.49-.17H99.9v1.27Z"/><path class="cls-1" d="M102.43,66.33c-.08,0-.11,0-.08-.11l1.07-2.49a.11.11,0,0,1,.12-.07h.63a.11.11,0,0,1,.12.07l1.07,2.49a.06.06,0,0,1,0,.08.1.1,0,0,1-.08,0h-.67a.13.13,0,0,1-.13-.08l-.12-.31h-1l-.12.31a.12.12,0,0,1-.12.08Zm1.16-1h.53l-.26-.7Z"/><path class="cls-1" d="M107,65.65h1.2a.09.09,0,0,1,.1.1v.48a.09.09,0,0,1-.1.1h-1.93c-.07,0-.11,0-.11-.1V63.76c0-.07,0-.1.11-.1h.63c.07,0,.1,0,.1.1Z"/><path class="cls-1" d="M109,66.33c-.09,0-.11,0-.09-.11L110,63.73a.11.11,0,0,1,.12-.07h.63a.13.13,0,0,1,.12.07l1.07,2.49a.11.11,0,0,1,0,.08.12.12,0,0,1-.09,0h-.67a.11.11,0,0,1-.12-.08l-.12-.31h-1l-.13.31a.11.11,0,0,1-.12.08Zm1.16-1h.53l-.27-.7Z"/><path class="cls-1" d="M113.72,66.41a1.22,1.22,0,0,1-.8-.26,1,1,0,0,1-.36-.7c0-.07,0-.1.11-.1h.61a.11.11,0,0,1,.12.09.32.32,0,0,0,.35.25.31.31,0,0,0,.25-.11.41.41,0,0,0,.09-.28V63.76c0-.07,0-.1.11-.1h.64c.07,0,.11,0,.11.1v1.48a1.15,1.15,0,0,1-.32.87A1.26,1.26,0,0,1,113.72,66.41Z"/><path class="cls-1" d="M115.74,66.33c-.08,0-.11,0-.08-.11l1.07-2.49a.12.12,0,0,1,.12-.07h.63a.11.11,0,0,1,.12.07l1.07,2.49a.06.06,0,0,1,0,.08s0,0-.08,0h-.67a.11.11,0,0,1-.12-.08l-.13-.31h-1l-.12.31a.11.11,0,0,1-.12.08Zm1.16-1h.53l-.26-.7Z"/><path class="cls-1" d="M122,66.21s0,.07,0,.09a.12.12,0,0,1-.09,0h-.75a.15.15,0,0,1-.13-.06l-.47-.67h-.33v.63c0,.07,0,.1-.1.1h-.63c-.07,0-.11,0-.11-.1V63.76c0-.07,0-.1.11-.1h1.14a1.42,1.42,0,0,1,.88.24.86.86,0,0,1,.32.73.83.83,0,0,1-.44.8Zm-1.75-1.88v.6h.34q.42,0,.42-.3c0-.2-.14-.3-.41-.3Z"/><path class="cls-1" d="M122.7,66.33c-.09,0-.12,0-.09-.11l1.07-2.49a.14.14,0,0,1,.13-.07h.62a.14.14,0,0,1,.13.07l1.06,2.49a.06.06,0,0,1,0,.08s0,0-.08,0h-.67a.11.11,0,0,1-.12-.08l-.12-.31h-1l-.13.31a.11.11,0,0,1-.12.08Zm1.16-1h.52l-.26-.7Z"/><path class="cls-2" d="M53.58,84a2.89,2.89,0,0,1-.28-5.77A26.63,26.63,0,0,0,73.93,64.64,2.9,2.9,0,0,1,79,67.46,32.43,32.43,0,0,1,53.87,84Z"/><path class="cls-3" d="M44,83.4a3,3,0,0,1-.65-.08,32.42,32.42,0,0,1,0-63.18,2.89,2.89,0,1,1,1.3,5.64A26.71,26.71,0,0,0,29.89,35a26.64,26.64,0,0,0,0,33.39,26.75,26.75,0,0,0,14.75,9.25A2.9,2.9,0,0,1,44,83.4Z"/><path class="cls-4" d="M76.46,40.31a2.9,2.9,0,0,1-2.53-1.49A26.63,26.63,0,0,0,53.3,25.23a2.89,2.89,0,1,1,.57-5.76A32.42,32.42,0,0,1,79,36a2.9,2.9,0,0,1-2.53,4.3Z"/><path class="cls-5" d="M50.34,74.53A23.17,23.17,0,0,1,27.75,56.77a2.9,2.9,0,0,1,5.63-1.36,17.46,17.46,0,0,0,32.23,4.34,2.9,2.9,0,0,1,5.06,2.82A23.27,23.27,0,0,1,50.34,74.53Z"/><path class="cls-6" d="M30.57,50.26a2.22,2.22,0,0,1-.68-.08,2.89,2.89,0,0,1-2.14-3.49,23.25,23.25,0,0,1,42.92-5.8,2.9,2.9,0,0,1-5.06,2.82,17.46,17.46,0,0,0-32.23,4.34A2.9,2.9,0,0,1,30.57,50.26Z"/><path class="cls-7" d="M50,64.51H46.81a2.9,2.9,0,0,1,0-5.79H50a7,7,0,0,0,0-14H46.81a2.9,2.9,0,0,1,0-5.79H50a12.78,12.78,0,0,1,0,25.56Z"/></svg>