<svg id="Layer_1" data-name="Layer 1" xmlns="http://www.w3.org/2000/svg" viewBox="0 0 130.9 105.77"><defs><style>.cls-1{fill:#fff;}.cls-2{fill:#7b868c;}</style></defs><title>plai-logos</title><rect class="cls-1" x="28.8" y="15.54" width="70.13" height="70.13" rx="17.74" transform="translate(54.49 -30.33) rotate(45)"/><path class="cls-1" d="M63.86,10.39A15.62,15.62,0,0,1,75,15l24.5,24.5a15.75,15.75,0,0,1,0,22.24L75,86.22a15.72,15.72,0,0,1-22.24,0L28.25,61.73a15.72,15.72,0,0,1,0-22.24L52.74,15a15.62,15.62,0,0,1,11.12-4.6m0-2a17.69,17.69,0,0,0-12.55,5.2L26.82,38.06a17.75,17.75,0,0,0,0,25.1L51.31,87.65a17.74,17.74,0,0,0,25.1,0L100.9,63.16a17.75,17.75,0,0,0,0-25.1L76.41,13.57a17.69,17.69,0,0,0-12.55-5.2Z"/><path class="cls-2" d="M57.45,61.07a.23.23,0,0,1-.17.25,3.09,3.09,0,0,1-.94.16,1.62,1.62,0,0,1-1.62-.86,3.33,3.33,0,0,1-2.29.86,3.69,3.69,0,0,1-2.65-1,3.67,3.67,0,0,1,0-5.1,3.69,3.69,0,0,1,2.65-1,3.26,3.26,0,0,1,2,.61v-.2a.19.19,0,0,1,.21-.21h1.28a.19.19,0,0,1,.21.21v4.67a.52.52,0,0,0,.13.38.47.47,0,0,0,.35.14,2.68,2.68,0,0,0,.52-.06c.15,0,.23,0,.25.17Zm-5-1a1.81,1.81,0,0,0,1.41-.6,2.49,2.49,0,0,0,0-3.1,1.81,1.81,0,0,0-1.41-.6,1.86,1.86,0,0,0-1.43.6,2.39,2.39,0,0,0,0,3.1A1.86,1.86,0,0,0,52.44,60.09Z"/><path class="cls-2" d="M60.38,61.48A2.23,2.23,0,0,1,59,61.06a1.33,1.33,0,0,1-.53-1.12V51.65a.18.18,0,0,1,.2-.21h1.28a.19.19,0,0,1,.21.21v7.83a.56.56,0,0,0,.13.38.49.49,0,0,0,.36.14,2.5,2.5,0,0,0,.51-.06c.15,0,.23,0,.25.17l.11,1a.21.21,0,0,1-.16.25A3.15,3.15,0,0,1,60.38,61.48Z"/><path class="cls-2" d="M63.33,53.14a1,1,0,0,1-.75-.28.92.92,0,0,1,0-1.38,1.13,1.13,0,0,1,1.49,0,.9.9,0,0,1,0,1.38A1.05,1.05,0,0,1,63.33,53.14Zm1.1,8.34A2.19,2.19,0,0,1,63,61.06a1.34,1.34,0,0,1-.54-1.12V54.81a.19.19,0,0,1,.21-.21H64a.19.19,0,0,1,.21.21v4.67a.52.52,0,0,0,.13.38.47.47,0,0,0,.35.14,2.68,2.68,0,0,0,.52-.06c.15,0,.23,0,.25.17l.11,1c0,.12,0,.2-.17.25A3.09,3.09,0,0,1,64.43,61.48Z"/><path class="cls-2" d="M69.35,61.48a4,4,0,0,1-2.29-.58,2.26,2.26,0,0,1-1-1.63c0-.14,0-.22.21-.22l1.17,0a.22.22,0,0,1,.22.18q.3.93,1.71.93a2,2,0,0,0,1-.21.59.59,0,0,0-.08-1.13,4.1,4.1,0,0,0-1.11-.27c-.43-.06-.86-.13-1.29-.23a2.22,2.22,0,0,1-1.11-.59,1.67,1.67,0,0,1-.45-1.24,1.8,1.8,0,0,1,.8-1.53,3.56,3.56,0,0,1,2.13-.58,3.74,3.74,0,0,1,2.06.54,2,2,0,0,1,1,1.43c0,.15,0,.22-.21.22H70.86c-.12,0-.19,0-.22-.12a1.1,1.1,0,0,0-.52-.61,2,2,0,0,0-1.82,0,.57.57,0,0,0-.34.51.66.66,0,0,0,.32.57,1.94,1.94,0,0,0,.81.27,9.47,9.47,0,0,1,1,.17,8.85,8.85,0,0,1,1,.28,1.61,1.61,0,0,1,.81.59,1.82,1.82,0,0,1,.32,1.1,1.86,1.86,0,0,1-.82,1.57A3.53,3.53,0,0,1,69.35,61.48Z"/><path class="cls-2" d="M76.87,61.48a3.69,3.69,0,0,1-2.68-1,3.75,3.75,0,0,1,0-5.14,4.17,4.17,0,0,1,4.91-.32,2.72,2.72,0,0,1,1.13,1.74c0,.14,0,.22-.18.22H78.73a.22.22,0,0,1-.22-.18,1.31,1.31,0,0,0-.6-.72,2,2,0,0,0-1-.27,1.88,1.88,0,0,0-1.45.58,2.38,2.38,0,0,0,0,3,1.88,1.88,0,0,0,1.45.58,2,2,0,0,0,1-.27,1.31,1.31,0,0,0,.6-.72.22.22,0,0,1,.22-.18h1.32c.15,0,.21.08.18.22a2.72,2.72,0,0,1-1.13,1.74A3.7,3.7,0,0,1,76.87,61.48Z"/><path class="cls-2" d="M87.48,60.51a4.21,4.21,0,0,1-5.38,0,3.75,3.75,0,0,1,0-5.14,4.21,4.21,0,0,1,5.38,0,3.75,3.75,0,0,1,0,5.14Zm-4.15-1a2.15,2.15,0,0,0,2.92,0,2.34,2.34,0,0,0,0-3,2.15,2.15,0,0,0-2.92,0,2.38,2.38,0,0,0,0,3Z"/><path class="cls-2" d="M47.41,51.55a.2.2,0,0,1,.21.2v6a3.6,3.6,0,0,1-1,2.74,4.52,4.52,0,0,1-5.41.16A3.08,3.08,0,0,1,40,58.48c0-.15,0-.22.21-.22H41.6a.19.19,0,0,1,.21.19,1.55,1.55,0,0,0,.66,1.07,2.28,2.28,0,0,0,1.38.41,1.86,1.86,0,0,0,1.44-.61,2.37,2.37,0,0,0,.54-1.62V53.53c0-.56-.6-.68-1-.7h-.11a.18.18,0,0,1-.17-.17v-.95a.17.17,0,0,1,.17-.16Z"/><path class="cls-2" d="M44.55,65a1,1,0,0,1,1,.69h-.37a.62.62,0,0,0-.63-.36.8.8,0,0,0,0,1.59.62.62,0,0,0,.71-.57h-.68v-.31h1a1,1,0,0,1-1.06,1.22,1.13,1.13,0,0,1,0-2.26Z"/><path class="cls-2" d="M47.26,67.27a1.13,1.13,0,1,1,1.13-1.13A1.07,1.07,0,0,1,47.26,67.27Zm0-.35a.79.79,0,1,0-.75-.78A.72.72,0,0,0,47.27,66.92Z"/><path class="cls-2" d="M50.42,66.09a.51.51,0,0,1,.36.51.63.63,0,0,1-.7.64h-1V65H50a.62.62,0,0,1,.7.63A.45.45,0,0,1,50.42,66.09Zm-1-.74V66H50c.21,0,.35-.09.36-.3s-.15-.32-.36-.32Zm0,.92v.65h.6a.32.32,0,0,0,.36-.32.33.33,0,0,0-.11-.26.5.5,0,0,0-.29-.07Z"/><path class="cls-2" d="M52.39,66.94v.3H51.33v-.3h.34V65.33h-.32V65h1v.3H52v1.61Z"/><path class="cls-2" d="M54.41,65.36h-1v.58h.92v.32h-.92v.65h1v.33H53.07V65h1.34Z"/><path class="cls-2" d="M56.94,67.19v0h-.38L56,66.47h-.49v.77h-.37V65h.91a.72.72,0,0,1,.77.72.68.68,0,0,1-.47.66Zm-.87-1a.39.39,0,0,0,.41-.41.4.4,0,0,0-.41-.41h-.55v.82Z"/><path class="cls-2" d="M57.92,65.74l0,.7v.8h-.36V65h.13l1.34,1.48,0-.67V65h.37v2.21h-.13Z"/><path class="cls-2" d="M61.21,67.27a1.13,1.13,0,1,1,1.13-1.13A1.08,1.08,0,0,1,61.21,67.27Zm0-.35a.79.79,0,1,0-.75-.78A.72.72,0,0,0,61.22,66.92Z"/><path class="cls-2" d="M64.91,65a1.1,1.1,0,0,1,0,2.2h-.8V65Zm0,1.87a.77.77,0,0,0,0-1.54h-.43v1.54Z"/><path class="cls-2" d="M68,65.36h-1v.58H68v.32h-.92v.65h1v.33H66.68V65H68Z"/><path class="cls-2" d="M69.15,66.91h.94v.33H68.78V65h.37Z"/><path class="cls-2" d="M73,65.36H72v.58H73v.32H72v.65h1v.33H71.67V65H73Z"/><path class="cls-2" d="M74,66.61c0,.25.29.33.53.33s.51-.06.51-.33-.3-.32-.56-.34-.8-.17-.8-.61.4-.65.83-.65.81.18.82.64H75c0-.24-.27-.32-.49-.32s-.46.07-.46.32.25.28.5.32c.45,0,.86.14.86.64s-.46.66-.87.66-.88-.19-.89-.66Z"/><path class="cls-2" d="M75.83,65.36V65h1.64v.33h-.64v1.88h-.36V65.36Z"/><path class="cls-2" d="M78.24,66.78l-.21.46h-.39v0l1-2.17h.17l1,2.17v0h-.38l-.22-.46Zm.12-.31h.77l-.38-.88Z"/><path class="cls-2" d="M81.21,65a1.1,1.1,0,0,1,0,2.2h-.8V65Zm0,1.87a.77.77,0,0,0,0-1.54h-.43v1.54Z"/><path class="cls-2" d="M84,67.27a1.13,1.13,0,1,1,1.13-1.13A1.08,1.08,0,0,1,84,67.27Zm0-.35a.72.72,0,0,0,.75-.78.76.76,0,1,0-.75.78Z"/><path class="cls-2" d="M64,24.83v1.22a1.11,1.11,0,0,1,.49,0h0V24.83A.86.86,0,0,0,64,24.83Z"/><path class="cls-2" d="M58.94,25.15a.2.2,0,0,0,.12.18,3.74,3.74,0,0,0,1.61.37,3.67,3.67,0,0,0,2.1-.68,2.92,2.92,0,0,1,3-.12,1.12,1.12,0,0,1-.79.3h-.18v.43H65a1.49,1.49,0,0,0,1.3-.67h0a.36.36,0,0,0,0-.1V22.27a.21.21,0,0,0-.09-.18,3.33,3.33,0,0,0-3.68,0,3.24,3.24,0,0,1-3.29.27.22.22,0,0,0-.27.08.22.22,0,0,0,0,.28l1.41,1.22L59,25A.2.2,0,0,0,58.94,25.15Zm2-1A.2.2,0,0,0,61,24a.21.21,0,0,0-.08-.17l-.82-.72a3.6,3.6,0,0,0,2.69-.62,2.9,2.9,0,0,1,3.1-.06v2.08a3.33,3.33,0,0,0-3.34.2,3.26,3.26,0,0,1-2.94.41Z"/><polygon class="cls-2" points="64.04 23.77 64.53 23.77 64.53 23.3 65 23.3 65 22.81 64.53 22.81 64.53 22.34 64.04 22.34 64.04 22.81 63.57 22.81 63.57 23.3 64.04 23.3 64.04 23.77"/><path class="cls-2" d="M74.8,41.59l.48-.55A10.77,10.77,0,0,0,77,38.6a4.36,4.36,0,0,0,.42-2.41,3.81,3.81,0,0,0-2.26-3,1.67,1.67,0,0,0,.25-1.11h0a.24.24,0,0,0-.16-.2.22.22,0,0,0-.24.06.9.9,0,0,1-.45.24.92.92,0,0,1-.52,0h0a4.46,4.46,0,0,0-1.61-.3,4.89,4.89,0,0,0-.66,0v0a1.59,1.59,0,0,0-.07-.48.29.29,0,0,0-.14-.15.26.26,0,0,0-.21,0,.65.65,0,0,1-.31.08H71l-.35,0a4.19,4.19,0,0,0-.5,0,4.48,4.48,0,0,0-.94.27l-.42.22a3.89,3.89,0,0,0-.39.28,3.61,3.61,0,0,0-.35.33,2.09,2.09,0,0,0-.2.22c-.07.08-.12.17-.18.25l-.32.52,0,.06,0,0,0,0h0l-.1.14-.12.14c-.07.07-.13.14-.2.2a.6.6,0,0,1-.08.08l-.14.12,0,0-.72-.5-.12-.69c0-.08.1-.15.14-.23l0,0a.38.38,0,0,0,.06-.13l0,0a1.17,1.17,0,0,1,.05-.11s0,0,0,0a.08.08,0,0,0,0,0l.2,0,.17-1.18h0l-.22-.05s0-.08,0-.11,0-.1,0-.15a1.76,1.76,0,0,0-.16-.4v0a1.46,1.46,0,0,0-.84-.74h0v0l0-.08a1.53,1.53,0,0,1,.68-.72l.08.22a.2.2,0,0,0,.22.14.27.27,0,0,0,.17-.06.87.87,0,0,0,.21-.22,1.62,1.62,0,0,0,.11-1.48,1,1,0,0,0-.9-.66.89.89,0,0,0-.4.07,1.14,1.14,0,0,0-1-.65,1.12,1.12,0,0,0-1,.65.89.89,0,0,0-.4-.07,1,1,0,0,0-.9.66A1.59,1.59,0,0,0,62.06,29a.83.83,0,0,0,.2.22.32.32,0,0,0,.17.06.21.21,0,0,0,.23-.14,1.72,1.72,0,0,1,.07-.22,1.49,1.49,0,0,1,.68.72l0,.08v0h0a1.48,1.48,0,0,0-.85.74v0a2.37,2.37,0,0,0-.15.4l0,.15s0,.07,0,.11l-.22.05h0l.16,1.18.2,0,0,0,0,0a1.17,1.17,0,0,1,0,.11v0l.06.13,0,0a1.71,1.71,0,0,0,.13.23l-.11.69-.72.5a3.51,3.51,0,0,1-.4-.37l-.06-.07a3.11,3.11,0,0,1-.23-.28h0l0,0,0,0,0-.06c-.12-.17-.22-.35-.33-.52l-.17-.25-.21-.22a2.2,2.2,0,0,0-.35-.33,3.89,3.89,0,0,0-.39-.28,4.13,4.13,0,0,0-.42-.22,3.57,3.57,0,0,0-.46-.16,3.72,3.72,0,0,0-.48-.11,4.07,4.07,0,0,0-.5,0l-.35,0h-.07a.65.65,0,0,1-.31-.08.24.24,0,0,0-.2,0,.23.23,0,0,0-.14.15,1.61,1.61,0,0,0-.08.48v.05a4.54,4.54,0,0,0-.75-.07,4.37,4.37,0,0,0-1.6.3h0a.89.89,0,0,1-.51,0,.86.86,0,0,1-.45-.24.22.22,0,0,0-.24-.06.24.24,0,0,0-.16.2h0a1.72,1.72,0,0,0,.24,1.11,3.78,3.78,0,0,0-2.25,3,4.36,4.36,0,0,0,.42,2.41A10.77,10.77,0,0,0,53.2,41l.47.55.17.19a2.81,2.81,0,0,1,.86,1.5.81.81,0,0,1-.88.88,1,1,0,0,1-.33-.06.31.31,0,0,0-.13,0h0a.55.55,0,0,0-.58.36l-.13,0a.47.47,0,0,0-.34.5v0A2.74,2.74,0,0,0,55,47.4h0a2.79,2.79,0,0,0,1.68-.59l0,0a.48.48,0,0,0,.34.14.46.46,0,0,0,.27-.09,3,3,0,0,0,.89-1h0a.47.47,0,0,1,.05-.1.59.59,0,0,0,0,.08l.1.16a7.11,7.11,0,0,0,11.63,0,.86.86,0,0,0,.1-.16.56.56,0,0,0,0-.08l0,.1h0a3.07,3.07,0,0,0,.9,1,.46.46,0,0,0,.27.09.49.49,0,0,0,.34-.14v0a2.79,2.79,0,0,0,1.69.59h0A2.73,2.73,0,0,0,76.16,45v0a.48.48,0,0,0-.35-.5l-.12,0a.55.55,0,0,0-.58-.36h0a.28.28,0,0,0-.13,0,1,1,0,0,1-.34.06.81.81,0,0,1-.87-.88,2.81,2.81,0,0,1,.86-1.5Zm-2.36-9.26a4.13,4.13,0,0,1,1.44.26l0,0a1.42,1.42,0,0,0,.79,0,1.25,1.25,0,0,0,.25-.09,1.46,1.46,0,0,1-.21.48,6.47,6.47,0,0,0-.93-.12,3.38,3.38,0,0,0-2.88,1.61.52.52,0,0,0-.51-.36H69A4,4,0,0,1,72.44,32.33Zm.49,5.81s0,.08,0,.11a1.41,1.41,0,0,0,1.35.88h.06c-1,1-2.45,1.6-3.43,2.69V38.07l.11-.1c.27-.28.52-.61.81-.89a2.72,2.72,0,0,1,1.53-.87,1.19,1.19,0,0,1,.72.09.63.63,0,0,1,.28.3.67.67,0,0,1-.13.74l-.06,0a.66.66,0,0,1-.33.12.45.45,0,0,1-.23,0,.53.53,0,0,0-.63.16A.57.57,0,0,0,72.93,38.14ZM66,31.6l0,.41h0l-.23.05-.22,0v-.63l.28.06Zm-1.67,1.23h0l1.2-.26h0c0,.09-.1.19-.16.28l-.14.18a1.19,1.19,0,0,1-.91.5,1.21,1.21,0,0,1-.91-.5l-.13-.18c-.06-.09-.11-.19-.16-.28h0Zm-.71-.63v-.83l.48-.12v1Zm.94.1v-1l.48.12v.83ZM63,28.5a1,1,0,0,1,.35-.34,1.59,1.59,0,0,0-.91.45,1.2,1.2,0,0,1,0-.91.58.58,0,0,1,.49-.37.9.9,0,0,1,.48.12,1.43,1.43,0,0,1,.72.94,1.52,1.52,0,0,0-.31-1.07l-.12-.14a.66.66,0,0,1,.63-.45.67.67,0,0,1,.64.45.81.81,0,0,0-.12.14,1.52,1.52,0,0,0-.31,1.07,1.43,1.43,0,0,1,.72-.94.88.88,0,0,1,.48-.12.58.58,0,0,1,.49.37,1.2,1.2,0,0,1,0,.91,1.62,1.62,0,0,0-.91-.45,1.13,1.13,0,0,1,.35.34,2,2,0,0,0-.9.94l0,.09,0,.06a3.37,3.37,0,0,1-.38-.19h0a2.69,2.69,0,0,1-.38.19l0-.06,0-.09A1.93,1.93,0,0,0,63,28.5Zm.69,1.7.33-.11a3,3,0,0,0,.31-.16,3.18,3.18,0,0,0,.32.16l.32.11a1.21,1.21,0,0,1,.75.85l-1.38-.33h0l-1.38.33A1.18,1.18,0,0,1,63.64,30.2Zm-1,1.81h0l0-.41.22-.06.28-.06v.63l-.22,0Zm.52,2,.07-.41,0,0a1.53,1.53,0,0,0,1,.42h0a1.49,1.49,0,0,0,1-.42l0,0,.07.42.78.54-.11.07a4.2,4.2,0,0,1-1.08.43,2.67,2.67,0,0,1-.69.09,3.07,3.07,0,0,1-.6-.07,4,4,0,0,1-1.11-.42l-.17-.1Zm-9.42-1.36a1.42,1.42,0,0,0,.79,0l0,0A4.21,4.21,0,0,1,56,32.33a4.06,4.06,0,0,1,3.41,1.85H58.05a.51.51,0,0,0-.51.36,3.41,3.41,0,0,0-2.88-1.61,6.47,6.47,0,0,0-.93.12,1.14,1.14,0,0,1-.21-.48A1.06,1.06,0,0,0,53.77,32.66Zm4.34,12a.45.45,0,0,0,0,.11v0a.5.5,0,0,1,0,.12h0a2.24,2.24,0,0,1-.16.52v0l0,.09,0,.07a2.49,2.49,0,0,1-.77.87A2.54,2.54,0,0,0,57.53,45a2.69,2.69,0,0,0-.1-.7h0A3.38,3.38,0,0,1,57,45.79h0a2.28,2.28,0,0,1-2,1.14h0a2.29,2.29,0,0,1-2.2-2h0s0,0,0,0a1.66,1.66,0,0,0,3.05-.8,1.59,1.59,0,0,1-.73.83l0,0a1.48,1.48,0,0,1-.29.12,1.24,1.24,0,0,1-1.64-.6l.1,0a1,1,0,0,0,.23.07,1.07,1.07,0,0,0,.25,0h.35l.08,0a1.25,1.25,0,0,0,.34-.12,1.1,1.1,0,0,0,.28-.2A1.05,1.05,0,0,0,55,44a1.13,1.13,0,0,0,.13-.33,1.31,1.31,0,0,0,.05-.39,3.54,3.54,0,0,0-1.14-2,13.48,13.48,0,0,1-2.16-2.88,3.91,3.91,0,0,1-.38-2.15,3.23,3.23,0,0,1,3.17-2.85,2.91,2.91,0,0,1,2.54,1.49A3,3,0,0,1,57.52,36v1.33h0a6.55,6.55,0,0,0-1.1-1.07,2.24,2.24,0,0,0-2.28-.37,1.22,1.22,0,0,0-.41,1.76A1.13,1.13,0,0,0,55,38a.89.89,0,0,1-1.27.48l-.21-.11a1.81,1.81,0,0,1-.33-.29L53,37.93a2.54,2.54,0,0,1-.16-.28,2.65,2.65,0,0,1-.12-.37,1.9,1.9,0,0,1,.16-1.15A2.31,2.31,0,0,1,54.27,35a2.64,2.64,0,0,1,1.91.23l.24.16a1.12,1.12,0,0,1,.19.15,2.1,2.1,0,0,0-1.8-1,2.48,2.48,0,0,0-2,.94,2.55,2.55,0,0,0-.49,2,4.83,4.83,0,0,0,1.25,2A20.55,20.55,0,0,1,56,42.78a3,3,0,0,1,.36,1.5,2,2,0,0,1-1.89,2h0a2,2,0,0,0,.35,0,2,2,0,0,0,1.78-1.07c.9-1.66-.51-3.35-1.5-4.57l-.51-.6,1.14.83c.24.17.47.34.69.52a5.66,5.66,0,0,1,.92.91A3.43,3.43,0,0,1,58.11,44.65Zm-4-5.52h.06a1.41,1.41,0,0,0,1.35-.88.36.36,0,0,0,0-.11.53.53,0,0,0-.09-.5.54.54,0,0,0-.36-.2.63.63,0,0,0-.27,0,.44.44,0,0,1-.23,0,.66.66,0,0,1-.32-.12l-.06,0a.65.65,0,0,1-.13-.74.63.63,0,0,1,.28-.3,1.17,1.17,0,0,1,.72-.09,2.76,2.76,0,0,1,1.53.87c.28.28.53.61.81.89l.1.1v3.75c-1-1.09-2.4-1.65-3.43-2.69ZM69.9,44.67v0a3,3,0,0,0,.06.42h0a5.28,5.28,0,0,1-.27.53l-.09.15a6.56,6.56,0,0,1-10.72,0l-.09-.15a5.36,5.36,0,0,1-.28-.53h0a3.07,3.07,0,0,0,.07-.42v0a3.7,3.7,0,0,0-.53-2.13h0V34.65h2.21L60,34.18h0v0A4.48,4.48,0,0,0,57.26,32c0-.06,0-.11,0-.16a.28.28,0,0,1,0-.09,1.16,1.16,0,0,0,.37,0l.3,0H58a2.84,2.84,0,0,1,.5.06A3.59,3.59,0,0,1,59,32l.44.2a3.62,3.62,0,0,1,.41.27,2.6,2.6,0,0,1,.35.32,3,3,0,0,1,.32.39c.11.16.21.34.33.51a5.32,5.32,0,0,0,.36.47l.29.29.15.14h0l.15.12,0,0,.15.11h0l.16.11h0a5.15,5.15,0,0,0,.7.36h0l.14,0,.33.11a3.09,3.09,0,0,0,1.84,0l.34-.11.13,0h0a4.2,4.2,0,0,0,.7-.36h0a.91.91,0,0,0,.16-.11h0l.15-.11,0,0,0,0h0l0,0,.06,0h0l.13-.12,0,0h0a4,4,0,0,0,.29-.29l.18-.22,0,0,.13-.2h0v0l.09-.15.23-.34a3,3,0,0,1,.31-.39,2.17,2.17,0,0,1,.36-.32,3.51,3.51,0,0,1,.4-.27l.44-.2a3.74,3.74,0,0,1,.48-.12,2.73,2.73,0,0,1,.49-.06h.08l.3,0a1.2,1.2,0,0,0,.38,0v.09a.57.57,0,0,1,0,.13,4.49,4.49,0,0,0-2.82,2.21v0h0l-.28.47h2.22v7.89h0A3.77,3.77,0,0,0,69.9,44.67Zm3.41-1.39a1.72,1.72,0,0,0,0,.39,1.51,1.51,0,0,0,.13.33,1.39,1.39,0,0,0,.21.27,1,1,0,0,0,.28.2,1.18,1.18,0,0,0,.33.12l.09,0h.34a1.09,1.09,0,0,0,.26,0,.81.81,0,0,0,.22-.07l.11,0a1.26,1.26,0,0,1-1.65.6,1.78,1.78,0,0,1-.29-.12l0,0a1.68,1.68,0,0,1-.73-.83,1.67,1.67,0,0,0,3.06.8s0,0,0,0h0a2.29,2.29,0,0,1-2.2,2h0a2.26,2.26,0,0,1-1.95-1.14h0a3.51,3.51,0,0,1-.45-1.47h0a2.32,2.32,0,0,0-.1.7,2.47,2.47,0,0,0,.47,1.46,2.49,2.49,0,0,1-.77-.87l0-.07a.36.36,0,0,1,0-.09v0a2.24,2.24,0,0,1-.16-.52h0a.5.5,0,0,0,0-.12v0s0-.07,0-.11a3.47,3.47,0,0,1,.79-2.34,6.09,6.09,0,0,1,.92-.91l.69-.52,1.15-.83-.51.6c-1,1.22-2.4,2.91-1.51,4.57a2.08,2.08,0,0,0,1,.92,2,2,0,0,0,.77.15,2.07,2.07,0,0,0,.35,0h0a2,2,0,0,1-1.89-2,3,3,0,0,1,.37-1.5,20.49,20.49,0,0,1,2.42-3.29,4.64,4.64,0,0,0,1.25-2,2.47,2.47,0,0,0-2.51-3,2.09,2.09,0,0,0-1.8,1,.83.83,0,0,1,.19-.15,1.88,1.88,0,0,1,.23-.16A2.65,2.65,0,0,1,74.2,35a2.33,2.33,0,0,1,1.37,1.13,1.9,1.9,0,0,1,.16,1.15,1.82,1.82,0,0,1-.13.37,1.51,1.51,0,0,1-.15.28l-.14.18a1.58,1.58,0,0,1-.34.29,1,1,0,0,1-.21.11A.88.88,0,0,1,73.5,38a1.13,1.13,0,0,0,1.25-.4,1.23,1.23,0,0,0-.41-1.76,2.26,2.26,0,0,0-2.29.37A6.49,6.49,0,0,0,71,37.31h0V36a2.86,2.86,0,0,1,.33-1.1,2.91,2.91,0,0,1,2.54-1.49A3.23,3.23,0,0,1,77,36.25a3.91,3.91,0,0,1-.38,2.15,13.52,13.52,0,0,1-2.17,2.88A3.59,3.59,0,0,0,73.31,43.28Z"/><path class="cls-2" d="M65.11,42.84v-.08a.22.22,0,0,0-.22-.22v.67l.8-.26a.8.8,0,0,0,.22.44.75.75,0,0,1,.21.32l-.59.25a.9.9,0,0,0,0,.28.82.82,0,0,0,0,.28.88.88,0,0,1-.41-.17v-.21a.22.22,0,0,0-.22-.22v.67h0a1.2,1.2,0,0,0,.67.23.22.22,0,0,1,.21.21.06.06,0,0,0,.06-.06.88.88,0,0,0,0-.17.47.47,0,0,1,0-.17.76.76,0,0,1,.06-.27l.11,0h.16a.91.91,0,0,1,.23,0l.14,0h.08a1.09,1.09,0,0,0,.26,0s0,0,0,0,0,0,0,0a.47.47,0,0,1-.25.1h-.12c.09.2.15.37.16.39a.92.92,0,0,0,.28.05.82.82,0,0,0,.28-.05.8.8,0,0,1-.17.41h-.21a.22.22,0,0,0-.22.22h.67a1.2,1.2,0,0,0,.23-.67.22.22,0,0,1,.21-.2s0-.07-.06-.07a.47.47,0,0,0-.17,0l-.17,0a.63.63,0,0,1-.27-.06.75.75,0,0,1,0-.26.85.85,0,0,1,0-.23h0a.08.08,0,0,1,0,0,.44.44,0,0,0,.16,0,.69.69,0,0,0,.7-.69.67.67,0,0,0-.07-.31l-.06-.13a1.11,1.11,0,0,1-.13-.62,1.12,1.12,0,0,1,.18-.56h0l.11-.06a.45.45,0,0,0,.15-.28v0s0,0,0-.07l0,0-.07,0-.08.06-.06.07-.06.07h0v0h0v0l0,0h0a1.22,1.22,0,0,0-.23.66,1.3,1.3,0,0,0,.14.7l.06.13a.48.48,0,0,1,.06.24.55.55,0,0,1-.55.54h0a.47.47,0,0,1-.37-.19l0-.06a.87.87,0,0,1-.17-.52h0a.69.69,0,0,0,.21.14s0,0,0,0a.66.66,0,0,1,0-.34,1.06,1.06,0,0,1,.06-.19.22.22,0,0,0,0,.11s0,0,0,0a1.06,1.06,0,0,1,.1-.3l0-.06a.41.41,0,0,0,0-.09l.06-.1h0v0h0v0h0v0h0v0h0v0h0v0h0v0h0v0a.93.93,0,0,0-.34-.71l0,0a0,0,0,0,0,0,0,.89.89,0,0,0-.66-.19h0a0,0,0,0,0,0,0l0,.09h0a.23.23,0,0,0-.18.11l-.25.11a.05.05,0,0,0,0,0,0,0,0,0,0,0,0s0,.19.1.2l.07,0h0c.07,0,.16,0,.18,0s.06.12,0,.14l-.1,0h-.1s0,.12,0,.15l.17,0h.12a.88.88,0,0,0,.27-.08.33.33,0,0,1-.2.13l-.11,0,0,0a.77.77,0,0,0-.31.22l-.77-.36h0v-.14a.22.22,0,0,0-.14-.2l-.08,0h0V42l.64.46.25-.07s0,0,0,0a0,0,0,0,1,0,0Z"/><path class="cls-2" d="M61.83,44.9a.81.81,0,0,1-.56,0,.9.9,0,0,0,.18.41h.2a.22.22,0,0,1,.22.22H61.2a1.28,1.28,0,0,1-.23-.67.2.2,0,0,0-.2-.2.06.06,0,0,1,.06-.07l.17,0,.16,0a.67.67,0,0,0,.28-.06,1.09,1.09,0,0,0,0-.26.85.85,0,0,0,0-.23h0a.06.06,0,0,1,0,0,.47.47,0,0,1-.17,0,.69.69,0,0,1-.69-.69.67.67,0,0,1,.07-.31l.06-.13a1.2,1.2,0,0,0,.13-.62,1.14,1.14,0,0,0-.19-.56h0l-.11-.06a.43.43,0,0,1-.15-.28v0a.15.15,0,0,1,0-.07l0,0,.07,0,.07.06.07.07.06.07h0l0,0h0l0,0,0,0h0A1.31,1.31,0,0,1,60.84,43l-.06.13a.6.6,0,0,0-.05.24.54.54,0,0,0,.54.54h0a.48.48,0,0,0,.37-.19l.05-.06a.87.87,0,0,0,.17-.52h0a.62.62,0,0,1-.22.14s0,0,0,0a.68.68,0,0,0,0-.34.62.62,0,0,0-.07-.19.16.16,0,0,1,0,.11s0,0,0,0a1.06,1.06,0,0,0-.1-.3l0-.06-.06-.09a.31.31,0,0,1-.05-.1h0v0h0v0h0v0h0v0h0v0h0v0h0v0h0v0a.9.9,0,0,1,.34-.71l-.05,0a0,0,0,0,1,0,0,.88.88,0,0,1,.65-.19h.05s0,0,0,0l0,.09h0a.25.25,0,0,1,.18.11l.24.11a.05.05,0,0,1,0,0l0,0s0,.19-.09.2l-.08,0h0c-.07,0-.16,0-.19,0s0,.12,0,.14l.1,0h.1s0,.12,0,.15l-.18,0h-.11a.81.81,0,0,1-.27-.08.32.32,0,0,0,.19.13l.11,0,.06,0a.84.84,0,0,1,.31.22l.76-.36h0v-.14a.22.22,0,0,1,.14-.2l.08,0h0V42l-.64.46-.27-.08s0,0,0,0,0,0,0,0l.73.37v-.08a.22.22,0,0,1,.22-.22v.67l-.8-.26a.76.76,0,0,1-.23.44.83.83,0,0,0-.2.32L63,44a1.35,1.35,0,0,1,0,.28,1.18,1.18,0,0,1,0,.28.88.88,0,0,0,.41-.17v-.21a.21.21,0,0,1,.21-.22v.67h0a1.2,1.2,0,0,1-.67.23.22.22,0,0,0-.2.21.06.06,0,0,1-.06-.06.47.47,0,0,1,0-.17.88.88,0,0,0,0-.17.6.6,0,0,0-.06-.27l-.1,0h-.26l.05-.32a0,0,0,0,0,0,0,0,0,0,0,0,0,0Z"/><path class="cls-2" d="M66.5,37.35a1.72,1.72,0,0,0-1.45-.91,1.74,1.74,0,0,0-.79-.19,1.7,1.7,0,0,0-.78.19,1.72,1.72,0,0,0-1.45.91,1.34,1.34,0,0,0-.71,1.18,1.32,1.32,0,0,0,.46,1,1.66,1.66,0,0,0,1.27,1,1.1,1.1,0,0,1,.92,1V44.5a.84.84,0,0,1-.77.8H63a.23.23,0,0,0-.23.23h2.93a.23.23,0,0,0-.23-.23h-.17a.82.82,0,0,1-.77-.8V41.61a1.09,1.09,0,0,1,.85-1h0a1.65,1.65,0,0,0,1.3-1,1.32,1.32,0,0,0,.46-1A1.34,1.34,0,0,0,66.5,37.35Zm0,1.84-.08.08,0,.1a1.22,1.22,0,0,1-.78.71h0a1.69,1.69,0,0,0-.36.11h0a.23.23,0,0,1-.07.07h0l-.07,0-.07,0a1.24,1.24,0,0,1-1.41,0l-.08,0-.06,0h0l-.06-.06h0a1.87,1.87,0,0,0-.36-.11h0a1.22,1.22,0,0,1-.78-.71l0-.1-.09-.08a.88.88,0,0,1,.17-1.44l.12-.06.07-.13a1.27,1.27,0,0,1,1.07-.67h.1l.1,0a1.08,1.08,0,0,1,.56-.14,1.1,1.1,0,0,1,.57.14l.09,0H65a1.27,1.27,0,0,1,1.07.67l.06.13.13.06a.87.87,0,0,1,.47.78A.85.85,0,0,1,66.45,39.19Z"/><path class="cls-2" d="M67.09,35.64a4.23,4.23,0,0,1-1,.41H69V42.4a4.93,4.93,0,0,1-.13,1.09,4.47,4.47,0,0,1-.44,1.17l-.07.12a4.76,4.76,0,0,1-8.25,0l-.07-.12a4.86,4.86,0,0,1-.44-1.17,4.92,4.92,0,0,1-.12-1.09V36.05h3a4.63,4.63,0,0,1-1-.41H59.09V42.4a5.17,5.17,0,0,0,.14,1.19,4.56,4.56,0,0,0,.48,1.26s0,.1.07.14a5.18,5.18,0,0,0,9,0s0-.09.08-.14a4.88,4.88,0,0,0,.47-1.26,5.17,5.17,0,0,0,.14-1.19V35.64Z"/><polygon class="cls-2" points="70.24 35.74 70.13 35.64 69.93 35.84 69.73 35.64 69.63 35.74 69.83 35.94 69.63 36.14 69.73 36.24 69.93 36.05 70.13 36.24 70.24 36.14 70.04 35.94 70.24 35.74"/><polygon class="cls-2" points="58.87 35.74 58.77 35.64 58.57 35.84 58.37 35.64 58.27 35.74 58.47 35.94 58.27 36.14 58.37 36.24 58.57 36.05 58.77 36.24 58.87 36.14 58.67 35.94 58.87 35.74"/><polygon class="cls-2" points="70.24 40.61 70.13 40.5 69.93 40.7 69.73 40.5 69.63 40.61 69.83 40.81 69.63 41.01 69.73 41.11 69.93 40.91 70.13 41.11 70.24 41.01 70.04 40.81 70.24 40.61"/><polygon class="cls-2" points="58.87 40.61 58.77 40.5 58.57 40.7 58.37 40.5 58.27 40.61 58.47 40.81 58.27 41.01 58.37 41.11 58.57 40.91 58.77 41.11 58.87 41.01 58.67 40.81 58.87 40.61"/><polygon class="cls-2" points="60.01 45.66 59.91 45.56 59.71 45.76 59.51 45.56 59.4 45.66 59.6 45.86 59.4 46.06 59.51 46.17 59.71 45.97 59.91 46.17 60.01 46.06 59.81 45.86 60.01 45.66"/><polygon class="cls-2" points="69.13 45.66 69.02 45.56 68.82 45.76 68.62 45.56 68.52 45.66 68.72 45.86 68.52 46.06 68.62 46.17 68.82 45.97 69.02 46.17 69.13 46.06 68.93 45.86 69.13 45.66"/><polygon class="cls-2" points="64.56 47.87 64.46 47.77 64.26 47.97 64.06 47.77 63.95 47.87 64.15 48.07 63.95 48.27 64.06 48.38 64.26 48.18 64.46 48.38 64.56 48.27 64.36 48.07 64.56 47.87"/></svg>